<?xml version="1.0" standalone="no"?>
<!DOCTYPE svg PUBLIC "-//W3C//DTD SVG 20010904//EN"
 "http://www.w3.org/TR/2001/REC-SVG-20010904/DTD/svg10.dtd">
<svg version="1.0" xmlns="http://www.w3.org/2000/svg"
 width="239.000000pt" height="239.000000pt" viewBox="0 0 239.000000 239.000000"
 preserveAspectRatio="xMidYMid meet">
<metadata>
Created by potrace 1.11, written by Peter Selinger 2001-2013
</metadata>
<g transform="translate(0.000000,239.000000) scale(0.100000,-0.100000)"
fill="#000000" stroke="none">
<path d="M183 2247 c-65 -24 -119 -73 -149 -133 l-29 -59 0 -855 0 -855 29
-59 c30 -60 84 -109 149 -133 43 -15 1964 -18 2019 -3 53 15 118 68 153 125
l30 48 0 877 0 877 -30 48 c-35 57 -100 110 -153 125 -55 15 -1976 12 -2019
-3z m368 -417 c18 -10 19 -24 19 -259 0 -154 4 -260 11 -279 9 -27 25 -39 97
-73 495 -236 505 -240 557 -240 45 0 85 15 313 123 173 81 261 128 260 137 -2
7 -120 69 -263 137 -217 103 -268 124 -307 124 -38 0 -78 -14 -207 -75 -162
-76 -188 -84 -209 -63 -16 16 -15 53 1 65 31 25 319 154 365 163 41 9 63 8
109 -4 67 -17 559 -248 587 -276 10 -10 20 -38 23 -62 8 -72 -14 -89 -321
-233 -291 -137 -340 -152 -422 -125 -54 18 -583 268 -618 293 -60 42 -66 74
-66 361 0 228 2 262 17 278 19 21 27 22 54 8z m309 -1016 c327 -155 331 -156
388 -152 47 4 103 27 333 136 151 73 282 132 290 132 38 0 53 -55 22 -82 -31
-26 -553 -268 -604 -280 -34 -8 -62 -8 -101 0 -53 11 -657 290 -690 320 -24
21 -22 48 4 66 12 9 24 16 25 16 2 0 152 -70 333 -156z"/>
</g>
</svg>
